<svg width="554" height="559" viewBox="0 0 554 559" fill="none" xmlns="http://www.w3.org/2000/svg">
<path d="M348.1 208.904C356.541 221.233 353.377 238.135 341.047 246.575C328.715 255.018 311.813 251.854 303.373 239.525C294.93 227.192 298.095 210.291 310.427 201.848C322.756 193.407 339.658 196.572 348.1 208.904ZM314.612 231.831C318.81 237.963 327.221 239.535 333.353 235.337C339.486 231.138 341.06 222.731 336.861 216.598C332.663 210.466 324.253 208.889 318.121 213.087C311.989 217.285 310.414 225.698 314.612 231.831Z" fill="#4D4D4D"/>
<path d="M73.665 207.906C75.7895 211.009 74.9953 215.251 71.8922 217.375L55.0321 228.918C51.9289 231.042 47.6905 230.246 45.566 227.143C43.4416 224.04 44.2347 219.803 47.3379 217.679L64.1979 206.136C67.3011 204.012 71.5406 204.803 73.665 207.906Z" fill="#4D4D4D"/>
<path d="M113.003 180.975C115.127 184.078 114.337 188.318 111.233 190.442L94.3733 201.985C91.2701 204.109 87.0285 203.315 84.904 200.212C82.7796 197.109 83.5759 192.87 86.6791 190.746L103.539 179.203C106.642 177.079 110.879 177.872 113.003 180.975Z" fill="#4D4D4D"/>
<path d="M92.5982 211.451L104.141 228.311C106.265 231.414 105.474 235.654 102.371 237.778C99.2646 239.905 95.0261 239.108 92.9017 236.005L81.3593 219.145C79.2348 216.042 80.0279 211.806 83.1343 209.679C86.2375 207.554 90.4738 208.348 92.5982 211.451Z" fill="#4D4D4D"/>
<path d="M65.6673 172.113L77.2098 188.973C79.3342 192.076 78.5433 196.316 75.4401 198.44C72.3337 200.567 68.0953 199.77 65.9708 196.667L54.4284 179.807C52.3039 176.704 53.0949 172.464 56.2013 170.338C59.3044 168.213 63.5429 169.01 65.6673 172.113V172.113Z" fill="#4D4D4D"/>
<path d="M400.039 423.352C401.965 426.166 403.183 429.427 403.564 432.916C404.174 438.492 402.578 443.977 399.065 448.351C395.552 452.726 390.548 455.476 384.967 456.085C379.392 456.695 373.907 455.099 369.532 451.586C360.499 444.352 359.045 431.094 366.294 422.056C373.545 413.02 386.792 411.57 395.828 418.816C397.471 420.132 398.883 421.664 400.039 423.352ZM376.586 439.38C376.987 439.965 377.479 440.497 378.059 440.965C379.597 442.197 381.525 442.757 383.485 442.544C385.445 442.331 387.205 441.362 388.441 439.822C389.679 438.284 390.236 436.359 390.023 434.399C389.806 432.44 388.84 430.67 387.3 429.442C384.128 426.892 379.468 427.404 376.919 430.58C374.837 433.181 374.797 436.765 376.586 439.38Z" fill="#4D4D4D"/>
<path d="M254.715 506.5C261.258 516.058 258.805 529.156 249.248 535.699C239.691 542.242 226.589 539.792 220.046 530.235C213.503 520.678 215.957 507.573 225.514 501.031C235.071 494.488 248.172 496.943 254.715 506.5ZM231.288 522.538C233.589 525.899 238.19 526.763 241.554 524.46C244.914 522.16 245.776 517.555 243.476 514.195C241.173 510.831 236.571 509.972 233.21 512.273C229.847 514.576 228.988 519.178 231.288 522.538Z" fill="#4D4D4D"/>
<path d="M277.714 412.752C278.698 414.19 279.134 416.007 278.789 417.854C278.094 421.551 274.537 423.986 270.843 423.294L242.93 418.071C239.233 417.376 236.798 413.819 237.488 410.121C238.183 406.425 241.739 403.99 245.434 404.682L273.349 409.908C275.198 410.257 276.73 411.315 277.714 412.752Z" fill="#4D4D4D"/>
<path d="M266.372 396.185C267.356 397.622 267.79 399.436 267.447 401.287L262.218 429.198C261.528 432.896 257.972 435.331 254.272 434.638C250.577 433.946 248.143 430.39 248.832 426.692L254.061 398.78C254.75 395.083 258.307 392.648 262.007 393.34C263.854 393.686 265.388 394.747 266.372 396.185Z" fill="#4D4D4D"/>
<path d="M140.494 355.608C145.672 352.064 152.741 353.387 156.286 358.565C159.828 363.739 158.504 370.808 153.327 374.353C148.153 377.895 141.083 376.571 137.541 371.397C133.997 366.22 135.32 359.151 140.494 355.608Z" fill="#4D4D4D"/>
<path d="M150.786 117.458C155.963 113.914 163.03 115.234 166.575 120.412C170.119 125.589 168.796 132.658 163.618 136.203C158.444 139.745 151.375 138.421 147.83 133.244C144.286 128.067 145.612 121 150.786 117.458Z" fill="#4D4D4D"/>
<path d="M418.252 335.023C488.047 294.727 511.675 204.981 471.028 134.579L218.275 280.506C258.921 350.909 348.454 375.321 418.252 335.023V335.023Z" fill="white"/>
<path d="M421.653 340.921C348.719 383.029 254.839 357.455 212.378 283.91C210.496 280.65 211.612 276.487 214.869 274.607L467.619 128.681C470.879 126.799 475.042 127.914 476.924 131.175C519.385 204.719 494.59 298.811 421.653 340.921V340.921ZM227.72 282.914C267.904 345.461 350.372 366.343 414.841 329.122C479.317 291.897 502.466 210.037 468.391 143.963L227.72 282.914Z" fill="#4D4D4D"/>
<path d="M320.316 64.7539C303.877 67.6524 287.641 73.4267 272.325 82.2693C202.527 122.567 178.329 211.319 218.275 280.506L471.028 134.579C450.206 98.5135 416.061 74.8832 378.262 66.2327" fill="#C6C6C6"/>
<path d="M474.429 140.477L221.679 286.402C218.422 288.283 214.257 287.164 212.377 283.907C170.617 211.577 195.982 118.48 268.915 76.3717C284.596 67.3187 301.493 61.1538 319.137 58.0503C322.841 57.3967 326.372 59.8718 327.025 63.576C327.682 67.2782 325.211 70.8154 321.498 71.4608C305.423 74.2974 290.027 79.9147 275.728 88.1707C211.292 125.373 187.597 206.225 220.913 271.117L461.581 132.167C442.134 101.945 412.246 80.9961 376.74 72.8714C373.073 72.0317 370.785 68.3802 371.623 64.7105C372.459 61.0462 376.119 58.7488 379.78 59.5958C420.653 68.9471 456.065 95.0366 476.928 131.173C478.803 134.428 477.689 138.594 474.429 140.477Z" fill="#4D4D4D"/>
<path d="M357.21 68.8511C356.097 69.4941 354.788 69.831 353.409 69.7497C350.646 69.5856 347.879 69.5002 345.11 69.5058C341.351 69.5027 338.299 66.4541 338.297 62.6934C338.298 58.9307 341.336 55.8849 345.109 55.8802C348.153 55.8826 351.187 55.9711 354.217 56.1524C357.972 56.374 360.833 59.5999 360.613 63.3495C360.469 65.7274 359.127 67.7443 357.21 68.8511V68.8511Z" fill="#4D4D4D"/>
<path d="M385.657 185.339C398.529 207.635 390.891 236.142 368.595 249.014C346.3 261.887 317.792 254.248 304.92 231.953C292.048 209.657 299.687 181.15 321.982 168.278C344.277 155.406 372.785 163.044 385.657 185.339V185.339Z" fill="white"/>
<path d="M371.998 254.916C346.486 269.645 313.75 260.87 299.021 235.359C284.29 209.844 293.059 177.106 318.57 162.377C344.085 147.646 376.825 156.418 391.556 181.933C406.286 207.445 397.513 240.185 371.998 254.916V254.916ZM325.383 174.176C306.375 185.15 299.842 209.541 310.816 228.549C321.791 247.557 346.18 254.094 365.188 243.12C384.199 232.144 390.735 207.751 379.761 188.743C368.787 169.735 344.394 163.2 325.383 174.176V174.176Z" fill="#4D4D4D"/>
<path d="M362.862 198.5C368.466 208.206 365.141 220.616 355.435 226.22C345.728 231.824 333.319 228.499 327.715 218.792C322.111 209.086 325.436 196.676 335.142 191.072C344.849 185.468 357.258 188.793 362.862 198.5V198.5Z" fill="#C6C6C6"/>
</svg>
