<svg width="572" height="572" viewBox="0 0 572 572" fill="none" xmlns="http://www.w3.org/2000/svg">
<g clip-path="url(#clip0)">
<path d="M390.19 457.391C462.046 420.898 490.455 332.549 453.644 260.067L193.425 392.224C230.236 464.706 318.33 493.887 390.19 457.391V457.391Z" fill="white"/>
<path d="M393.269 463.463C318.181 501.598 225.809 471.024 187.355 395.307C185.65 391.95 186.987 387.853 190.34 386.15L450.556 253.995C453.912 252.291 458.01 253.628 459.714 256.985C498.168 332.701 468.36 425.327 393.269 463.463V463.463ZM202.728 395.135C239.498 459.748 320.727 485.025 387.1 451.316C453.48 417.604 480.988 337.104 450.507 269.297L202.728 395.135Z" fill="#4D4D4D"/>
<path d="M306.895 182.257C290.325 184.27 273.801 189.164 258.033 197.172C186.173 233.668 157.249 320.993 193.425 392.224L453.644 260.067C434.787 222.937 401.959 197.509 364.678 186.843" fill="#C6C6C6"/>
<path d="M456.723 266.14L196.508 398.294C193.155 399.997 189.056 398.656 187.353 395.303C149.534 320.837 179.857 229.235 254.945 191.1C271.089 182.902 288.293 177.652 306.077 175.5C309.811 175.046 313.204 177.707 313.658 181.441C314.115 185.173 311.458 188.573 307.715 189.018C291.512 190.988 275.837 195.771 261.115 203.248C194.776 236.939 166.777 316.403 196.564 382.99L444.34 257.152C426.542 225.931 397.821 203.408 362.802 193.39C359.186 192.355 357.097 188.586 358.13 184.967C359.162 181.352 362.94 179.255 366.55 180.297C406.862 191.828 440.823 219.779 459.718 256.983C461.415 260.334 460.08 264.435 456.723 266.14Z" fill="#4D4D4D"/>
<path d="M343.517 188.328C342.37 188.91 341.045 189.177 339.673 189.021C336.922 188.709 334.163 188.475 331.398 188.332C327.645 188.128 324.761 184.92 324.96 181.164C325.163 177.407 328.361 174.529 332.129 174.726C335.168 174.892 338.193 175.143 341.209 175.487C344.946 175.91 347.63 179.284 347.209 183.017C346.938 185.384 345.49 187.326 343.517 188.328V188.328Z" fill="#4D4D4D"/>
<path d="M365.672 306.175C377.33 329.128 368.173 357.185 345.219 368.843C322.265 380.5 294.208 371.343 282.551 348.389C270.893 325.435 280.051 297.379 303.004 285.721C325.958 274.064 354.015 283.221 365.672 306.175V306.175Z" fill="white"/>
<path d="M348.3 374.918C322.035 388.257 289.816 377.739 276.477 351.474C263.136 325.205 273.649 292.985 299.914 279.646C326.183 266.305 358.405 276.821 371.746 303.09C385.085 329.355 374.569 361.577 348.3 374.918V374.918ZM306.084 291.793C286.514 301.732 278.683 325.737 288.621 345.306C298.56 364.876 322.563 372.713 342.132 362.774C361.705 352.834 369.541 328.827 359.602 309.258C349.663 289.688 325.657 281.853 306.084 291.793V291.793Z" fill="#4D4D4D"/>
<path d="M342.204 318.093C347.279 328.086 343.293 340.299 333.3 345.375C323.307 350.45 311.094 346.464 306.019 336.471C300.944 326.477 304.93 314.264 314.923 309.189C324.916 304.114 337.129 308.1 342.204 318.093V318.093Z" fill="#C6C6C6"/>
<path d="M336.38 351.447C323.058 358.212 306.711 352.877 299.945 339.555C293.178 326.23 298.513 309.883 311.835 303.117C325.16 296.35 341.507 301.685 348.275 315.01C355.04 328.332 349.705 344.679 336.38 351.447ZM318.002 315.261C311.376 318.626 308.724 326.761 312.089 333.388C315.454 340.014 323.586 342.668 330.212 339.303C336.838 335.937 339.496 327.804 336.131 321.178C332.765 314.552 324.629 311.896 318.002 315.261Z" fill="#4D4D4D"/>
<path d="M373.053 79.4708C369.7 81.1737 365.598 79.8348 363.895 76.4817L354.643 58.264C352.94 54.9109 354.281 50.812 357.634 49.1091C360.987 47.4062 365.084 48.7434 366.787 52.0965L376.039 70.3142C377.742 73.6673 376.406 77.7679 373.053 79.4708Z" fill="#4D4D4D"/>
<path d="M394.641 121.977C391.287 123.68 387.187 122.344 385.484 118.991L376.232 100.773C374.529 97.4202 375.868 93.3178 379.221 91.6148C382.574 89.9119 386.673 91.2526 388.376 94.6057L397.628 112.823C399.331 116.177 397.994 120.274 394.641 121.977Z" fill="#4D4D4D"/>
<path d="M367.077 97.7824L348.859 107.035C345.506 108.737 341.405 107.402 339.702 104.049C337.998 100.692 339.338 96.5935 342.692 94.8906L360.909 85.6384C364.262 83.9355 368.36 85.2727 370.064 88.6292C371.767 91.9823 370.43 96.0795 367.077 97.7824Z" fill="#4D4D4D"/>
<path d="M409.583 76.1951L391.365 85.4473C388.012 87.1502 383.911 85.8148 382.208 82.4617C380.504 79.1052 381.844 75.0062 385.197 73.3033L403.415 64.0511C406.768 62.3482 410.869 63.6837 412.573 67.0402C414.276 70.3933 412.936 74.4922 409.583 76.1951V76.1951Z" fill="#4D4D4D"/>
<path d="M116.999 375.06C113.958 376.604 110.566 377.387 107.057 377.312C101.45 377.192 96.2191 374.896 92.3384 370.844C88.4577 366.791 86.3817 361.473 86.5034 355.86C86.6233 350.253 88.919 345.022 92.9712 341.141C101.318 333.126 114.653 333.408 122.672 341.771C130.688 350.135 130.404 363.457 122.044 371.475C120.525 372.933 118.823 374.134 116.999 375.06ZM104.157 349.723C103.524 350.044 102.933 350.462 102.394 350.976C100.972 352.341 100.166 354.18 100.122 356.151C100.079 358.123 100.81 359.993 102.177 361.419C103.54 362.847 105.377 363.649 107.348 363.693C109.318 363.733 111.199 363.004 112.617 361.638C115.558 358.824 115.656 354.137 112.839 351.197C110.53 348.794 106.982 348.288 104.157 349.723Z" fill="#4D4D4D"/>
<path d="M53.4524 220.158C43.1257 225.403 30.4569 221.268 25.2123 210.941C19.9677 200.614 24.1008 187.942 34.4275 182.698C44.7543 177.453 57.4283 181.59 62.6729 191.916C67.9175 202.243 63.7792 214.914 53.4524 220.158ZM40.5968 194.845C36.9658 196.689 35.5105 201.139 37.3563 204.774C39.2004 208.405 43.6539 209.858 47.2849 208.014C50.9194 206.168 52.3695 201.717 50.5254 198.086C48.6795 194.451 44.2278 193.001 40.5968 194.845Z" fill="#4D4D4D"/>
<path d="M143.414 255.152C141.861 255.941 140.003 256.137 138.216 255.554C134.641 254.384 132.689 250.541 133.856 246.968L142.664 219.971C143.834 216.396 147.677 214.445 151.253 215.609C154.828 216.779 156.78 220.622 155.614 224.195L146.802 251.194C146.216 252.982 144.968 254.363 143.414 255.152Z" fill="#4D4D4D"/>
<path d="M161.316 246.06C159.763 246.849 157.908 247.044 156.118 246.462L129.123 237.649C125.546 236.485 123.594 232.642 124.762 229.063C125.929 225.49 129.771 223.538 133.348 224.703L160.343 233.516C163.92 234.68 165.872 238.523 164.704 242.102C164.121 243.889 162.869 245.272 161.316 246.06Z" fill="#4D4D4D"/>
<path d="M217.915 126.527C220.756 132.122 218.525 138.959 212.931 141.8C207.34 144.64 200.503 142.408 197.661 136.814C194.822 131.223 197.054 124.386 202.644 121.546C208.239 118.705 215.076 120.937 217.915 126.527Z" fill="#4D4D4D"/>
<path d="M452.705 167.697C455.547 173.292 453.318 180.127 447.724 182.968C442.13 185.81 435.293 183.578 432.452 177.984C429.612 172.393 431.844 165.556 437.438 162.715C443.032 159.873 449.866 162.107 452.705 167.697Z" fill="#4D4D4D"/>
</g>
<defs>
<clipPath id="clip0">
<rect width="424" height="424" fill="white" transform="translate(0.983002 192.977) rotate(-26.9245)"/>
</clipPath>
</defs>
</svg>
