<?xml version="1.0" standalone="no"?>
<!DOCTYPE svg PUBLIC "-//W3C//DTD SVG 20010904//EN"
 "http://www.w3.org/TR/2001/REC-SVG-20010904/DTD/svg10.dtd">
<svg version="1.0" xmlns="http://www.w3.org/2000/svg"
 width="700.000000pt" height="700.000000pt" viewBox="0 0 700.000000 700.000000"
 preserveAspectRatio="xMidYMid meet">
<metadata>
Created by potrace 1.14, written by Peter Selinger 2001-2017
</metadata>
<g transform="translate(0.000000,700.000000) scale(0.100000,-0.100000)"
fill="#000000" stroke="none">
<path d="M3555 6983 c-219 -33 -459 -117 -612 -216 -24 -15 -45 -27 -48 -27
-16 0 -200 -148 -268 -216 -265 -261 -446 -620 -483 -959 -2 -21 -7 -51 -9
-65 -6 -28 -6 -258 -1 -305 14 -131 42 -262 76 -369 26 -81 26 -81 101 -231
35 -71 64 -134 64 -138 0 -4 -49 -34 -110 -66 -217 -114 -399 -239 -599 -411
-56 -48 -232 -226 -291 -295 -33 -38 -68 -78 -77 -88 -43 -49 -184 -255 -252
-370 -127 -215 -265 -573 -291 -759 -3 -24 -8 -50 -10 -58 -11 -42 -18 -139
-20 -260 -2 -222 30 -400 112 -619 146 -392 464 -763 889 -1037 96 -62 312
-176 414 -219 36 -15 80 -34 98 -42 101 -44 455 -147 577 -167 221 -37 259
-43 389 -53 177 -15 597 -8 717 12 13 2 46 6 73 10 51 6 193 31 236 40 14 3
36 8 50 11 109 21 433 123 530 166 396 178 619 322 863 558 55 52 128 130 164
172 75 90 203 276 203 295 0 7 4 13 8 13 14 0 101 195 142 318 66 199 88 349
84 561 -2 75 -5 147 -7 161 -2 14 -8 50 -12 80 -5 30 -9 57 -10 60 -1 3 -5 23
-9 45 -22 108 -98 350 -117 370 -5 5 -9 15 -9 22 0 7 -21 56 -46 110 -194 410
-506 795 -879 1086 -91 70 -262 187 -275 187 -5 0 -10 5 -10 10 0 6 -4 10 -9
10 -5 0 -39 17 -75 39 l-66 38 47 18 c106 40 217 113 316 206 251 233 371 564
332 908 -8 66 -57 261 -92 361 -163 469 -538 850 -1003 1018 -108 39 -181 60
-250 72 -30 5 -68 12 -85 15 -63 13 -371 12 -460 -2z m-117 -2062 c23 -49 62
-116 87 -150 25 -34 45 -62 45 -64 0 -1 -48 -3 -108 -3 -59 -1 -131 -4 -159
-7 -29 -2 -53 -1 -53 3 0 29 126 310 140 310 3 0 25 -40 48 -89z"/>
</g>
</svg>
